<?xml version="1.0" standalone="no"?><!DOCTYPE svg PUBLIC "-//W3C//DTD SVG 1.1//EN"
        "http://www.w3.org/Graphics/SVG/1.1/DTD/svg11.dtd">
<svg xmlns:xlink="http://www.w3.org/1999/xlink" t="1774930012197" class="icon" viewBox="0 0 1024 1024" version="1.1" xmlns="http://www.w3.org/2000/svg"
     p-id="3615" width="200" height="200">
    <path d="M512 160v704a32 32 0 0 1-54.63 22.63L274.75 704H128a64.07 64.07 0 0 1-64-64V384a64.07 64.07 0 0 1 64-64h146.75l182.62-182.63A32 32 0 0 1 512 160z m474.51 159.35A509.09 509.09 0 0 0 874 150a522.773 522.773 0 0 0-33.07-30.33 32 32 0 0 0-41.17 49c10 8.38 19.72 17.32 29 26.59C913.4 279.83 960 392.33 960 512s-46.6 232.17-131.22 316.78c-9.26 9.26-19 18.21-29 26.59a32 32 0 1 0 41.17 49c11.4-9.57 22.53-19.77 33.05-30.37a512.56 512.56 0 0 0 112.51-554.65zM896 512a382.92 382.92 0 0 0-112.47-271.53c-2.1-2.1-4.26-4.21-6.4-6.26a32 32 0 1 0-44.21 46.28c1.79 1.72 3.59 3.48 5.35 5.24a320 320 0 0 1 0 452.54c-1.77 1.77-3.57 3.53-5.35 5.24a32 32 0 1 0 44.2 46.28c2.14-2 4.3-4.15 6.41-6.26A382.92 382.92 0 0 0 896 512zM713.13 353.59a32 32 0 1 0-50.23 39.65 191.05 191.05 0 0 1 0 237.52 32 32 0 0 0 50.24 39.65 256.1 256.1 0 0 0 0-316.82z"
          fill="#2c2c2c" p-id="3616"></path>
</svg>