<?xml version="1.0" standalone="no"?><!DOCTYPE svg PUBLIC "-//W3C//DTD SVG 1.1//EN"
        "http://www.w3.org/Graphics/SVG/1.1/DTD/svg11.dtd">
<svg xmlns:xlink="http://www.w3.org/1999/xlink" t="1774929992493" class="icon" viewBox="0 0 1024 1024" version="1.1" xmlns="http://www.w3.org/2000/svg"
     p-id="2602" width="200" height="200">
    <path d="M500.2 139.6l-246 170.7H151.1c-24.3 0-44.1 19.7-44.1 44.1v315.4c0 24.3 19.7 44.1 44.1 44.1h108.1l233 166.6c19.5 14 46.7 0 46.7-24V159.8c-0.1-19.8-22.4-31.5-38.7-20.2z m-45.3 611.1L286 630h-95.2V394.2h89.6l174.5-121.1v477.6zM792.5 393.4c-4.2-10.5-16.6-15-26.6-9.7l-37.3 19.6c-8.6 4.5-12.4 14.7-8.9 23.7 4.2 11 9.5 27.2 13 46.6 7.5 41.7 3.8 79.6-11 112.9-4 9-0.7 19.5 7.8 24.5l36.4 21c9.7 5.6 22.1 1.7 26.8-8.4 44.6-94.6 15.9-190.3-0.2-230.2z"
          p-id="2603"></path>
</svg>