<?xml version="1.0" standalone="no"?><!DOCTYPE svg PUBLIC "-//W3C//DTD SVG 1.1//EN"
        "http://www.w3.org/Graphics/SVG/1.1/DTD/svg11.dtd">
<svg xmlns:xlink="http://www.w3.org/1999/xlink" t="1774920607490" class="icon" viewBox="0 0 1024 1024" version="1.1" xmlns="http://www.w3.org/2000/svg"
     p-id="7028" width="200" height="200">
    <path d="M128 170.666667a42.666667 42.666667 0 0 1 42.666667-42.666667h725.333333a42.666667 42.666667 0 1 1 0 85.333333H170.666667a42.666667 42.666667 0 0 1-42.666667-42.666666z m0 341.333333a42.666667 42.666667 0 0 1 42.666667-42.666667h410.069333a42.666667 42.666667 0 1 1 0 85.333334H170.666667a42.666667 42.666667 0 0 1-42.666667-42.666667z m42.666667 298.666667a42.666667 42.666667 0 1 0 0 85.333333h410.069333a42.666667 42.666667 0 1 0 0-85.333333H170.666667z m640 85.333333c-23.552 0-42.666667-21.845333-42.666667-48.768v-414.464c0-1.109333 0-2.176 0.085333-3.285333A42.581333 42.581333 0 0 1 810.538667 384h0.256c10.88 0 21.76 4.181333 30.037333 12.501333l85.333333 85.333334a42.666667 42.666667 0 0 1-60.330666 60.330666L853.333333 529.664v317.568c0 26.922667-19.114667 48.768-42.666666 48.768z"
          fill="#515151" p-id="7029"></path>
</svg>