<?xml version="1.0" standalone="no"?><!DOCTYPE svg PUBLIC "-//W3C//DTD SVG 1.1//EN" "http://www.w3.org/Graphics/SVG/1.1/DTD/svg11.dtd">
<svg t="1775465900468" class="icon" viewBox="0 0 1024 1024" version="1.1" xmlns="http://www.w3.org/2000/svg" p-id="5895"
     width="200" height="200"><path d="M896.042667 471.68v128.490667c0 118.293333-95.509333 214.186667-213.333334 214.186666H384v76.693334a21.333333 21.333333 0 0 1-33.344 17.621333l-175.573333-119.573333a21.333333 21.333333 0 0 1-0.085334-35.2l175.573334-120.832A21.333333 21.333333 0 0 1 384 650.666667v78.037333h298.709333c70.698667 0 128-57.536 128-128.512V471.68h85.333334zM555.733333 384v248.832h-61.013333V449.706667L448 487.509333v-65.706666L494.72 384h61.013333z m105.642667-277.333333a21.333333 21.333333 0 0 1 12.010667 3.690666l175.573333 119.573334a21.333333 21.333333 0 0 1 0.085333 35.2l-175.573333 120.832a21.333333 21.333333 0 0 1-33.429333-17.578667V290.346667H341.333333c-70.698667 0-128 57.557333-128 128.512v128.533333H128v-128.533333c0-118.272 95.509333-214.186667 213.333333-214.186667h298.709334V128a21.333333 21.333333 0 0 1 21.333333-21.333333z" fill="#000000" p-id="5896"></path></svg>